<svg width="166" height="146" viewBox="0 0 166 146" fill="none" xmlns="http://www.w3.org/2000/svg">
<g clip-path="url(#clip0)">
<path d="M24.7979 14.978H16.5319C13.4897 14.9805 11.0244 17.1422 11.0212 19.8094V32.6676C11.0134 34.6449 12.3873 36.4247 14.4842 37.1534L22.7514 40.0539C23.4024 40.2821 24.0969 40.3993 24.7979 40.3995C27.8418 40.399 30.3087 38.2356 30.3087 35.5669V19.8094C30.3054 17.1422 27.8402 14.9808 24.7979 14.978ZM24.7979 35.5678L16.5319 32.6673V19.8094H24.7979V35.5678Z" fill="black"/>
<path d="M162.564 24.6405H148.787C148.785 21.9732 146.319 19.8118 143.277 19.809H137.016C136.26 18.6277 134.985 17.7195 133.41 17.3544L123.669 15.4027C122.679 12.3706 119.498 10.1501 115.723 10.1464H99.8351C98.3221 8.66583 96.1258 7.73305 93.6805 7.73079H85.4146C84.8595 7.73135 84.3245 7.80524 83.8192 7.93942L72.2636 1.86153C70.551 0.96046 68.5911 0.484306 66.5934 0.48374H41.9986C39.0735 0.476663 36.2669 1.49606 34.2046 3.31462L33.5372 3.89976C32.5059 4.80904 31.1023 5.3186 29.6396 5.3152H11.0212C4.9373 5.32114 0.00710357 9.64389 0 14.9778V39.256C0.00226023 43.074 2.56665 46.5336 6.54529 48.0861L19.6223 53.1817C22.1418 54.1609 23.4463 56.6229 22.6749 58.9425C18.9023 69.7573 16.8355 80.9738 16.5319 92.2798V102.357C16.5339 102.998 16.2433 103.613 15.7247 104.066L11.8323 107.478C11.8297 107.48 11.8274 107.482 11.8249 107.485L10.6876 108.482C9.13196 109.838 8.25983 111.683 8.26597 113.607V133.346C8.27501 140.014 14.4377 145.417 22.0427 145.425H83.7469C85.3791 145.426 86.9748 145.003 88.3319 144.207L92.7555 141.622C95.0574 140.28 96.4393 138.016 96.4364 135.592V127.648C96.439 126.138 95.9004 124.664 94.8972 123.436L87.9147 114.867C83.7727 109.793 77.095 106.78 69.9782 106.774H55.1066H51.3313C49.9219 106.772 48.5949 106.192 47.7463 105.205C46.8977 104.218 46.6262 102.94 47.0127 101.752L55.4711 75.7947C56.4969 72.6875 59.7381 70.5463 63.4278 70.5386C66.4393 70.5358 68.8801 68.3959 68.8833 65.7556V63.2916C68.8833 62.9165 68.7838 62.5465 68.5927 62.211C68.5498 62.1369 64.5459 54.9606 69.7848 51.2131H77.1493C80.755 51.2097 83.8182 49.1839 84.9487 46.3607C85.103 46.3723 85.2577 46.3816 85.4152 46.3816H93.6812C96.1264 46.3793 98.3227 45.4463 99.8358 43.966H115.724C119.499 43.9623 122.68 41.7415 123.669 38.7094L133.411 36.7566C134.986 36.3917 136.261 35.4841 137.017 34.3031H143.277C146.319 34.3006 148.784 32.1389 148.787 29.4716H162.564C164.086 29.4716 165.319 28.39 165.319 27.0561C165.319 25.7221 164.086 24.6405 162.564 24.6405ZM89.6987 137.602L85.2735 140.188C84.8218 140.453 84.2903 140.594 83.7465 140.593H22.0424C17.4793 140.589 13.7812 137.347 13.7764 133.346H90.9257V135.592C90.9263 136.4 90.4659 137.155 89.6987 137.602ZM55.1066 111.605H69.9782C75.3156 111.61 80.3236 113.869 83.4307 117.674L90.4119 126.243C90.7471 126.653 90.9266 127.144 90.926 127.648V128.515H13.7767V113.607C13.7748 112.965 14.0654 112.35 14.5839 111.898L14.9175 111.605H51.3313H55.1066V111.605ZM52.7485 70.1635C50.4821 64.8471 50.3326 60.5371 52.3162 57.317C54.9106 53.1018 60.668 51.7105 62.8314 51.3263C60.5253 55.6765 61.8265 60.8281 63.3832 63.8549L63.4194 65.7069C59.1866 65.7193 55.3093 67.4167 52.7485 70.1635ZM79.9045 43.966C79.9025 45.2994 78.6701 46.3799 77.1493 46.3816H68.8833H63.3725C63.2708 46.3813 63.1694 46.3864 63.0687 46.3969C62.6234 46.4394 52.1066 47.5445 47.4919 54.9815C44.1396 60.3831 44.8716 67.4685 49.6594 76.043L41.7134 100.425C41.0196 102.56 41.2804 104.825 42.3989 106.774H20.3301C21.4379 105.515 22.0479 103.963 22.0427 102.356V92.2795C22.3446 81.4398 24.3342 70.6872 27.9571 60.32C29.5124 55.6742 26.9067 50.7363 21.8612 48.7678L8.78421 43.671C6.79456 42.8951 5.51204 41.1651 5.51075 39.256V14.9778C5.51366 12.3106 7.97924 10.1492 11.0215 10.1464H29.64C32.565 10.1535 35.3716 9.13405 37.4339 7.3155L38.101 6.73064C39.1323 5.82136 40.5359 5.3118 41.9986 5.3152H66.5934C67.5921 5.31548 68.5717 5.55356 69.428 6.00395L80.021 11.5757C79.9455 11.8942 79.9048 12.224 79.9042 12.562V36.719V41.5504V43.966H79.9045ZM93.6809 41.5504H85.4149V36.719H88.1701C89.6919 36.719 90.9253 35.6373 90.9253 34.3034C90.9253 32.9695 89.6916 31.8878 88.1701 31.8878H85.4149V22.2249H88.1701C89.6919 22.2249 90.9253 21.1435 90.9253 19.8093C90.9253 18.4751 89.6916 17.3937 88.1701 17.3937H85.4149V12.5622H93.6809C95.2017 12.5639 96.4342 13.6445 96.4361 14.9778V39.1346C96.4345 40.4682 95.202 41.5487 93.6809 41.5504ZM115.724 39.1346H101.947V24.6405H110.213C111.735 24.6405 112.968 23.5591 112.968 22.2249C112.968 20.8907 111.735 19.8093 110.213 19.8093H101.947V14.9778H115.724C117.244 14.9795 118.477 16.0601 118.479 17.3934V36.719C118.477 38.0523 117.244 39.1329 115.724 39.1346ZM123.99 33.6888V20.4202L132.113 22.0409C132.215 22.1451 132.266 22.2801 132.256 22.4171V31.6953C132.247 31.8145 132.223 31.9325 132.183 32.0469L123.99 33.6888ZM137.766 29.4719V24.6405H143.277L143.279 27.0215C143.279 27.0331 143.277 27.0444 143.277 27.0561C143.277 27.0679 143.279 27.0796 143.279 27.0917L143.281 29.4719H137.766Z" fill="black"/>
<path d="M68.883 14.978H41.3298C39.8081 14.978 38.5746 16.0594 38.5746 17.3936C38.5746 18.7277 39.8081 19.8091 41.3298 19.8091H68.883C70.4047 19.8091 71.6382 18.7277 71.6382 17.3936C71.6382 16.0594 70.4047 14.978 68.883 14.978Z" fill="black"/>
<path d="M68.883 24.6406H41.3298C39.8081 24.6406 38.5746 25.7222 38.5746 27.0561C38.5746 28.3903 39.8081 29.4717 41.3298 29.4717H68.883C70.4047 29.4717 71.6382 28.3901 71.6382 27.0561C71.6385 25.7222 70.4047 24.6406 68.883 24.6406Z" fill="black"/>
<path d="M68.883 34.3035H41.3298C39.8081 34.3035 38.5746 35.3849 38.5746 36.719C38.5746 38.0532 39.8081 39.1346 41.3298 39.1346H68.883C70.4047 39.1346 71.6382 38.0532 71.6382 36.719C71.6385 35.3849 70.4047 34.3035 68.883 34.3035Z" fill="black"/>
</g>
<defs>
<clipPath id="clip0">
<rect width="165.319" height="144.941" fill="white" transform="translate(0 0.483826)"/>
</clipPath>
</defs>
</svg>
