<svg width="55" height="55" viewBox="0 0 55 55" fill="none" xmlns="http://www.w3.org/2000/svg">
<path d="M55 26.7925C55 41.5885 42.9121 53.5832 27.9977 53.5832C23.2647 53.5832 18.8188 52.3726 14.9485 50.2527L0 55L4.87283 40.6218C2.41579 36.5866 1.00075 31.8482 1.00075 26.7907C1.00254 11.9947 13.0869 0 28.0013 0C42.9139 0.00358692 55 11.9964 55 26.7925ZM27.9959 4.27202C15.4793 4.27202 5.29788 14.3764 5.29788 26.7979C5.29788 31.7263 6.90482 36.2888 9.62191 40.0013L6.78824 48.3642L15.508 45.5933C19.095 47.9463 23.3867 49.3165 27.9959 49.3165C40.5124 49.3165 50.6975 39.214 50.6975 26.7925C50.7011 14.3764 40.5142 4.27202 27.9959 4.27202ZM41.6334 32.9638C41.4648 32.693 41.0236 32.528 40.3636 32.198C39.7054 31.868 36.4467 30.2808 35.8423 30.0655C35.2325 29.8449 34.7913 29.7338 34.3501 30.392C33.9143 31.0502 32.6445 32.528 32.2554 32.9692C31.8698 33.4086 31.4842 33.4641 30.8224 33.1395C30.1606 32.806 28.0264 32.1173 25.4976 29.8808C23.5302 28.1376 22.2012 25.9908 21.8174 25.3326C21.4282 24.6762 21.778 24.3211 22.1062 23.9947C22.4021 23.6988 22.768 23.2271 23.0998 22.8415C23.4315 22.4595 23.5409 22.1887 23.7615 21.7493C23.9785 21.3099 23.8691 20.9279 23.7059 20.5961C23.5409 20.2661 22.2192 17.0379 21.665 15.7233C21.1144 14.4104 20.5638 14.6274 20.1764 14.6274C19.7908 14.6274 19.3496 14.5736 18.9084 14.5736C18.4672 14.5736 17.7499 14.7333 17.1455 15.3915C16.5411 16.0497 14.8301 17.6369 14.8301 20.8687C14.8301 24.1041 17.1993 27.2229 17.5311 27.6605C17.8646 28.0963 22.1116 34.9455 28.8388 37.5748C35.5697 40.2022 35.5697 39.3252 36.782 39.214C37.998 39.1028 40.699 37.6268 41.2478 36.0951C41.8001 34.5564 41.8001 33.2382 41.6334 32.9638Z" fill="green"/>
</svg>
