<svg width="70" height="70" viewBox="0 0 70 70" fill="none" xmlns="http://www.w3.org/2000/svg">
<path d="M57.6706 20.4435L35.0025 40.4187L12.3294 20.4432C11.4266 19.6479 10.0504 19.7353 9.25537 20.6375C8.46059 21.54 8.54713 22.9161 9.44993 23.7115L33.563 44.9556C33.9745 45.318 34.4888 45.4992 35.0028 45.4992C35.5167 45.4992 36.0313 45.318 36.4428 44.9553L60.5509 23.7112C61.4532 22.9161 61.54 21.5397 60.7449 20.6372C59.9493 19.7356 58.5734 19.6485 57.6706 20.4435Z" fill="#595959"/>
<path d="M63.4664 11.1882H6.53362C2.93113 11.1882 0 14.1191 0 17.7218V52.278C0 55.8808 2.93113 58.8116 6.53362 58.8116H63.4664C67.0689 58.8116 70 55.8808 70 52.278V17.7218C70 14.1194 67.0689 11.1882 63.4664 11.1882ZM65.6443 52.278C65.6443 53.4787 64.6674 54.4559 63.4664 54.4559H6.53362C5.33259 54.4559 4.35574 53.4787 4.35574 52.278V17.7218C4.35574 16.5211 5.33259 15.544 6.53362 15.544H63.4664C64.6674 15.544 65.6443 16.5211 65.6443 17.7218V52.278Z" fill="#595959"/>
</svg>
