<svg width="166" height="146" viewBox="0 0 166 146" fill="none" xmlns="http://www.w3.org/2000/svg">
<g clip-path="url(#clip0)">
<path d="M159.78 70.9441V17.393C159.775 13.3931 156.078 10.1515 151.515 10.1473H148.761V7.73217C148.756 3.73234 145.058 0.490757 140.496 0.486511H134.987C130.424 0.490757 126.727 3.73234 126.722 7.73217V10.1473H99.1743V7.73217C99.1695 3.73234 95.4721 0.490757 90.9099 0.486511H74.3811C69.8189 0.490757 66.1216 3.73234 66.1167 7.73217V10.1473H38.5689V7.73217C38.564 3.73234 34.8667 0.490757 30.3045 0.486511H24.7948C20.2326 0.490757 16.5352 3.73234 16.5304 7.73217V10.1473H13.7757C9.21348 10.1515 5.51613 13.3931 5.51129 17.393V70.9441C2.30399 71.9406 0.00546085 74.621 0.00158691 77.7737V138.154C0.00642933 142.154 3.70378 145.396 8.26598 145.4H157.025C161.587 145.396 165.285 142.154 165.289 138.154V77.7737C165.286 74.621 162.987 71.9406 159.78 70.9441ZM132.232 7.73217C132.233 6.3988 133.466 5.31818 134.987 5.31705H140.496C142.017 5.31846 143.25 6.3988 143.251 7.73217V10.1473H132.232V7.73217ZM71.6264 7.73217C71.628 6.3988 72.8603 5.31818 74.3811 5.31705H90.9099C92.4307 5.31846 93.6633 6.3988 93.6646 7.73217V10.1473H71.6261V7.73217H71.6264ZM22.0401 7.73217C22.0417 6.3988 23.2739 5.31818 24.7948 5.31705H30.3045C31.8253 5.31846 33.0579 6.3988 33.0592 7.73217V10.1473H22.0401V7.73217ZM11.0207 17.393C11.0223 16.0596 12.2545 14.979 13.7754 14.9778H19.2851H35.8138H68.8714H96.4193H129.477H146.006H151.515C153.036 14.9793 154.269 16.0596 154.27 17.393V70.5277H148.761V22.2235C148.761 21.583 148.471 20.9685 147.954 20.5154C147.437 20.0625 146.737 19.8081 146.006 19.8081H19.2851C18.5545 19.8078 17.8536 20.0623 17.3368 20.5154C16.8203 20.9682 16.53 21.5827 16.53 22.2235V70.528H11.0207V17.393ZM58.3582 70.528L47.1022 54.756C46.5818 54.0218 45.6533 53.5873 44.6677 53.617C43.6821 53.6468 42.7902 54.1361 42.3285 54.9C41.8669 55.6639 41.9063 56.5861 42.4318 57.3174L51.8597 70.528H45.3582L34.3195 55.0461C31.9073 51.657 33.0782 47.1956 36.937 45.0714C40.818 43.018 45.857 44.0335 48.326 47.3662L64.8364 70.5277H58.3582V70.528ZM71.6264 75.3583H93.6649V94.6801C93.6633 96.0135 92.4311 97.0941 90.9102 97.0953H74.3814C72.8606 97.0938 71.628 96.0132 71.6267 94.6801V75.3583H71.6264ZM96.4196 70.528H88.3228L106.212 51.9185C106.832 51.2735 107 50.427 106.745 49.6744C105.481 45.456 106.865 40.9646 110.386 37.8798C113.924 34.7809 119.079 33.5726 123.908 34.7101L116.806 38.2786C113.219 40.1194 111.986 44.1456 114.038 47.3144L116.805 51.5246C118.885 54.6957 123.503 55.7893 127.121 53.968L133.418 50.7909C132.086 53.9632 129.323 56.5142 125.778 57.8441C122.233 59.1741 118.22 59.1651 114.683 57.8195C113.463 57.3528 112.067 57.7224 111.329 58.6412L99.9039 70.528H96.4196ZM114.446 62.8952C116.345 63.421 118.327 63.6928 120.326 63.695V63.6953C125.58 63.6741 130.602 61.7973 134.258 58.4892C137.913 55.1811 139.894 50.721 139.752 46.1166C139.72 45.269 139.183 44.4983 138.338 44.0862C137.492 43.6741 136.462 43.6811 135.624 44.1048L124.379 49.7797C123.909 50.0183 123.349 50.0825 122.824 49.9585C122.3 49.8346 121.853 49.5326 121.582 49.1191L118.815 44.9089C118.263 44.0496 118.596 42.9611 119.563 42.4584L131.189 36.6183C132.007 36.2076 132.529 35.4584 132.572 34.6325C132.615 33.8067 132.173 33.019 131.401 32.5449C124.684 28.4375 115.756 28.4505 109.055 32.5772C102.762 36.4533 99.6966 43.1813 101.112 49.7282L81.1169 70.5277H71.3356L52.9951 44.8C50.3886 41.1378 45.7502 38.9746 40.8296 39.126C35.9091 39.2774 31.4553 41.7206 29.1481 45.5342C26.8408 49.3478 27.0316 53.9507 29.6482 57.6072L38.8597 70.5277H35.8142H22.0401V24.6386H143.251V70.5277H129.477H107.109L114.446 62.8952ZM33.0592 97.0953H22.0401V92.2647H33.0592V97.0953ZM22.0401 101.926H33.0592V111.587C33.0575 112.92 31.8253 114.001 30.3045 114.002H24.7948C23.2739 114 22.0414 112.92 22.0401 111.587V101.926ZM33.0592 87.4345H22.0401V75.3583H33.0592V87.4345ZM132.232 92.265H143.251V97.0956H132.232V92.265ZM143.251 75.3583V87.4345H132.232V75.3583H143.251ZM132.232 101.926H143.251V111.587C143.249 112.92 142.017 114.001 140.496 114.002H134.987C133.466 114 132.233 112.92 132.232 111.587V101.926V101.926ZM159.78 138.154C159.778 139.487 158.546 140.568 157.025 140.569H8.26598C6.74514 140.568 5.51258 139.487 5.51129 138.154V77.7737C5.5129 76.4403 6.74514 75.3597 8.26598 75.3586H16.5304V111.587C16.5352 115.587 20.2326 118.828 24.7948 118.833H30.3045C34.8667 118.828 38.564 115.587 38.5689 111.587V75.3586H66.1167V94.6801C66.1216 98.68 69.8189 101.922 74.3811 101.926H90.9099C95.4721 101.922 99.1695 98.68 99.1743 94.6801V75.3583H126.722V111.587C126.727 115.586 130.424 118.828 134.987 118.832H140.496C145.058 118.828 148.756 115.586 148.761 111.587V75.3583H157.025C158.546 75.3597 159.778 76.4403 159.78 77.7734V138.154V138.154Z" fill="black"/>
</g>
<defs>
<clipPath id="clip0">
<rect width="165.288" height="144.913" fill="white" transform="translate(0.00158691 0.486511)"/>
</clipPath>
</defs>
</svg>
