<svg width="166" height="146" viewBox="0 0 166 146" fill="none" xmlns="http://www.w3.org/2000/svg">
<g clip-path="url(#clip0)">
<path d="M164.884 88.4272L164.865 88.394C164.524 87.6826 164.064 87.0198 163.498 86.429L157.214 80.002V41.0174C157.214 30.9781 150.758 21.7962 140.527 17.2866L140.674 7.11998C140.698 4.71802 138.714 2.66125 136.008 2.28176L129.837 1.43869C127.131 1.08244 124.531 2.51078 123.716 4.80321L120.363 14.431H63.4845C46.7448 14.4476 33.1789 26.3412 33.16 41.0174V70.0202H21.9136C19.497 70.0235 17.2028 70.9496 15.6291 72.5572L2.07082 86.4246C0.783638 87.7379 0.0769506 89.4129 0.0794745 91.1444V142.528C0.0794745 143.864 1.31365 144.946 2.83682 144.946H162.727C164.251 144.946 165.485 143.864 165.485 142.528V91.1444C165.485 90.225 165.287 89.3134 164.902 88.457L164.884 88.4272ZM114.575 86.9391L110.603 72.8625C110.984 72.077 111.369 71.2903 111.76 70.5059C114.447 65.151 117.226 59.6136 116.309 53.4145L129.057 55.1515H129.068L130.964 55.3208C127.806 61.1061 128.572 67.2653 129.248 72.6866L129.29 73.0384C129.882 78.005 130.415 82.7171 128.51 86.938L114.575 86.9391ZM52.4576 89.3565V99.0241C52.4526 103.027 48.7526 106.27 44.1881 106.274H38.6734C34.109 106.27 30.409 103.027 30.4039 99.0241V89.3565H52.4576ZM140.674 70.0202H134.475C133.633 65.7761 134.141 61.4103 135.941 57.4008C136.671 56.0554 136.624 54.4855 135.815 53.1755C135.13 52.0636 133.983 51.2249 132.612 50.8344L134.726 38.8921L136.882 32.7051C139.326 34.9412 140.686 37.9207 140.674 41.0174V70.0202ZM128.872 40.4465L127.181 50.0002L121.71 49.2567L123.4 39.6986L127.693 40.285L128.872 40.4465ZM118.356 36.6726L116.245 48.6094C114.794 48.6128 113.402 49.1084 112.358 49.9913C111.139 51.0269 110.556 52.5094 110.79 53.9832C111.133 57.8057 110.313 61.6393 108.411 65.0924L101.275 39.8059C100.907 38.5447 99.9786 37.4659 98.6964 36.8098C97.466 36.1692 95.9933 35.9856 94.609 36.302L73.2052 40.9389C70.2447 41.5761 68.4338 44.1983 69.1607 46.7939L75.7127 70.0202H49.7015V41.0174C49.7104 34.3459 55.8762 28.9401 63.4845 28.9324H118.469L118.356 36.6726ZM77.0756 74.854L80.156 85.7763L69.4787 74.854H77.0756ZM94.5055 86.9391C94.5459 86.6647 94.532 86.387 94.4639 86.117C94.2885 85.4952 93.838 84.9597 93.212 84.6289C92.5861 84.2981 91.8353 84.1985 91.126 84.3534L85.7615 85.5174L84.4378 80.8252L89.801 79.6613C90.7601 79.4566 91.5223 78.8171 91.7987 77.9862C92.0738 77.1542 91.8201 76.2569 91.1336 75.6329C90.4484 75.01 89.4338 74.7567 88.476 74.968L83.114 76.133L81.7915 71.4397L87.1522 70.2758C88.6135 69.9428 89.4969 68.6417 89.1347 67.3571C88.7725 66.0715 87.2986 65.2816 85.8284 65.5836L80.4689 66.7475L79.1452 62.0553L84.5034 60.8914C85.47 60.6934 86.2398 60.0539 86.5187 59.2186C86.7988 58.3833 86.5439 57.4815 85.8537 56.8564C85.1621 56.2313 84.1412 55.9802 83.1809 56.1992L77.8201 57.361L74.5113 45.6355L95.9315 40.9942L108.895 86.9391H94.5055ZM135.039 74.854H143.652C144.457 74.8618 145.22 75.1704 145.748 75.7026L156.734 86.9391H134.322C135.429 82.9871 135.673 78.8868 135.039 74.854ZM151.701 41.0174V74.3628L149.93 72.5505C148.929 71.5537 147.635 70.8201 146.187 70.4318V41.0174C146.207 35.7676 143.416 30.8132 138.647 27.6368L140.222 23.1172C140.264 22.9966 140.257 22.8661 140.289 22.7421C147.395 26.7318 151.695 33.619 151.701 41.0174ZM128.989 6.21606L135.16 7.05913L134.949 21.6999V21.7077L130.068 35.7167L127.737 35.3992L123.897 34.8714L124.019 26.5404L124.024 26.516L124.019 26.4939L124.109 20.224L128.989 6.21606ZM38.6734 41.0174C38.6898 29.0098 49.7886 19.2781 63.4845 19.2648H118.756C118.669 19.5591 118.616 19.8611 118.596 20.1643L118.539 24.0986H63.4845C52.8324 24.1096 44.1995 31.6773 44.1881 41.0174V84.5227H38.6734V41.0174ZM5.5929 91.1444C5.59164 90.5691 5.82509 90.0115 6.25289 89.5745L19.8099 75.7081C20.3387 75.1727 21.1047 74.8618 21.9136 74.854H33.16V84.5227H30.4039C27.3601 84.5249 24.893 86.6879 24.8905 89.3565V99.0241C24.8993 105.695 31.0652 111.1 38.6734 111.108H44.1881C51.7964 111.1 57.9622 105.695 57.971 99.0241V89.3565C57.9685 86.6879 55.5014 84.5249 52.4576 84.5227H49.7015V74.854H60.9492C61.7543 74.8618 62.5178 75.1704 63.0453 75.7026L76.5746 89.5402C76.7803 89.7504 76.9481 89.986 77.0731 90.2394C77.2018 90.5282 77.2687 90.8346 77.2687 91.1444V140.112H5.5929V91.1444ZM82.7821 140.112V91.7729H159.971V140.112H82.7821Z" fill="black"/>
<path d="M86.5414 47.9976C85.4586 48.2333 84.6446 49.0166 84.4781 49.9836C84.3115 50.9494 84.8251 51.9087 85.7804 52.4143C86.7357 52.9188 87.9434 52.869 88.8406 52.2893C89.7379 51.7084 90.148 50.7116 89.8792 49.7623C89.5132 48.4667 88.0191 47.6767 86.5414 47.9976Z" fill="black"/>
<path d="M96.5663 96.6067H91.0529C89.5297 96.6067 88.2955 97.6887 88.2955 99.0241C88.2955 100.358 89.5297 101.44 91.0529 101.44H96.5663C98.0882 101.44 99.3224 100.358 99.3224 99.0241C99.3224 97.6887 98.0882 96.6067 96.5663 96.6067Z" fill="black"/>
<path d="M151.7 96.6067H107.593C106.07 96.6067 104.836 97.6887 104.836 99.0241C104.836 100.358 106.07 101.44 107.593 101.44H151.7C153.224 101.44 154.458 100.358 154.458 99.0241C154.458 97.6887 153.224 96.6067 151.7 96.6067Z" fill="black"/>
</g>
<defs>
<clipPath id="clip0">
<rect width="165.405" height="145.016" fill="white" transform="translate(0.0794678 0.53479)"/>
</clipPath>
</defs>
</svg>
