<svg width="225" height="26" viewBox="0 0 225 26" fill="none" xmlns="http://www.w3.org/2000/svg">
<path d="M0.224 25V22.084L1.412 21.976C2.108 21.904 2.456 21.568 2.456 20.968V4.228L0.404 4.12V1.06H10.268C13.796 1.06 16.544 1.996 18.512 3.868C20.504 5.74 21.5 8.512 21.5 12.184C21.5 14.464 21.2 16.456 20.6 18.16C20 19.84 19.184 21.16 18.152 22.12C16.088 24.04 13.52 25 10.448 25H0.224ZM6.848 4.552V21.544H10.52C12.584 21.544 14.192 20.8 15.344 19.312C16.496 17.824 17.072 15.664 17.072 12.832C17.072 7.312 14.732 4.552 10.052 4.552H6.848ZM24.0934 25V22.084L25.2814 21.976C25.9774 21.904 26.3254 21.568 26.3254 20.968V4.228L24.2734 4.12V1.06H34.1014C36.8854 1.06 39.0214 1.576 40.5094 2.608C41.9974 3.64 42.7414 5.332 42.7414 7.684C42.7414 9.316 42.3094 10.66 41.4454 11.716C40.6054 12.772 39.5974 13.54 38.4214 14.02C39.2854 14.332 39.9694 15.064 40.4734 16.216L43.0654 21.868L45.1174 21.94V25H36.2254V22.084L37.2694 21.976C37.8214 21.904 38.0974 21.688 38.0974 21.328C38.0974 21.184 38.0494 21.016 37.9534 20.824L36.2614 17.224C35.9974 16.624 35.6974 16.204 35.3614 15.964C35.0494 15.7 34.5934 15.568 33.9934 15.568H30.7174V21.832L33.0574 21.94V25H24.0934ZM30.7174 12.148H33.8494C36.8014 12.148 38.2774 10.828 38.2774 8.188C38.2774 6.676 37.8814 5.692 37.0894 5.236C36.3214 4.78 35.0734 4.552 33.3454 4.552H30.7174V12.148ZM51.6756 20.968V15.856L45.5556 4.228L43.8636 4.12V1.06H52.6476V3.976L51.5676 4.084C51.1836 4.108 50.9316 4.252 50.8116 4.516C50.7156 4.78 50.7636 5.104 50.9556 5.488L54.0156 11.752H54.1596L58.0836 4.264L56.2836 4.12V1.06H64.0236V3.976L62.9436 4.084C62.4876 4.132 62.0796 4.492 61.7196 5.164L56.0676 15.856V21.832L58.8756 21.94V25H48.7236V22.084L50.6316 21.976C51.3276 21.928 51.6756 21.592 51.6756 20.968ZM96.2464 3.976L95.0584 4.084C94.4344 4.132 94.0384 4.564 93.8704 5.38L89.3344 25H84.4024L80.6224 8.98H80.5144L76.8424 25H71.7664L66.7984 4.228L64.7464 4.12V1.06H73.6744V3.976L72.4864 4.084C71.7424 4.156 71.3704 4.468 71.3704 5.02C71.3704 5.116 71.3824 5.224 71.4064 5.344L74.5384 19.24H74.6824L78.4264 2.968H83.0704L86.9584 19.312H87.0304L90.0904 4.264L88.1464 4.12V1.06H96.2464V3.976ZM95.9832 20.968L101.779 4.192L99.5112 3.976V1.06H107.755L115.099 21.832H115.135L117.187 21.94V25H107.899V22.084L109.267 21.976C109.675 21.928 109.951 21.832 110.095 21.688C110.239 21.544 110.251 21.28 110.131 20.896L109.375 18.664H100.951L99.8712 21.832L102.031 21.94V25H93.7152V22.084L94.9032 21.976C95.4072 21.928 95.7672 21.592 95.9832 20.968ZM105.163 5.092L101.815 15.352H108.511L105.271 5.092H105.163ZM135.623 25H118.523V22.084L119.711 21.976C120.407 21.904 120.755 21.568 120.755 20.968V4.228L118.703 4.12V1.06H127.379V3.976L126.191 4.084C125.495 4.156 125.147 4.54 125.147 5.236V21.292H131.123C131.459 21.292 131.675 21.208 131.771 21.04C131.891 20.848 131.951 20.548 131.951 20.14V17.62L135.623 17.872V25ZM154.959 25H137.859V22.084L139.047 21.976C139.743 21.904 140.091 21.568 140.091 20.968V4.228L138.039 4.12V1.06H146.715V3.976L145.527 4.084C144.831 4.156 144.483 4.54 144.483 5.236V21.292H150.459C150.795 21.292 151.011 21.208 151.107 21.04C151.227 20.848 151.287 20.548 151.287 20.14V17.62L154.959 17.872V25ZM164.474 25V22.084L165.662 21.976C166.358 21.904 166.706 21.568 166.706 20.968V4.228L164.654 4.12V1.06H182.042V7.036L178.37 7.288V5.848C178.37 5.44 178.31 5.152 178.19 4.984C178.07 4.816 177.782 4.732 177.326 4.732H171.098V11.104H179.954V14.776H171.098V21.832L174.302 21.94V25H164.474ZM198.493 4.876C198.229 4.42 197.245 4.192 195.541 4.192C193.309 4.192 191.617 4.948 190.465 6.46C189.313 7.972 188.737 10.156 188.737 13.012C188.737 18.94 190.957 21.904 195.397 21.904C195.469 21.904 195.781 21.904 196.333 21.904C196.909 21.904 197.449 21.832 197.953 21.688C198.457 21.52 198.757 21.352 198.853 21.184C198.949 21.016 198.997 20.752 198.997 20.392V17.512L202.669 17.764V23.992C200.797 24.976 198.421 25.468 195.541 25.468C191.869 25.468 189.061 24.436 187.117 22.372C185.197 20.308 184.237 17.236 184.237 13.156C184.237 10.9 184.561 8.932 185.209 7.252C185.857 5.572 186.733 4.264 187.837 3.328C189.997 1.528 192.565 0.627998 195.541 0.627998C197.941 0.627998 200.197 1.12 202.309 2.104V8.224L198.637 8.476V5.668C198.637 5.308 198.589 5.044 198.493 4.876ZM205.605 25V22.084L206.793 21.976C207.489 21.904 207.837 21.568 207.837 20.968V4.228L205.785 4.12V1.06H216.081C218.769 1.06 220.857 1.696 222.345 2.968C223.857 4.216 224.613 6.1 224.613 8.62C224.613 11.14 223.761 13.108 222.057 14.524C220.353 15.916 218.097 16.612 215.289 16.612H212.229V21.832L215.685 21.94V25H205.605ZM212.229 13.12H214.821C218.325 13.12 220.077 11.692 220.077 8.836C220.077 7.108 219.621 5.968 218.709 5.416C217.821 4.84 216.393 4.552 214.425 4.552H212.229V13.12Z" fill="black"/>
</svg>
