<svg width="166" height="146" viewBox="0 0 166 146" fill="none" xmlns="http://www.w3.org/2000/svg">
<g clip-path="url(#clip0)">
<path d="M27.5711 145.542C30.6129 145.54 33.0784 143.378 33.0822 140.711V70.6669H37.4507C38.9123 70.6703 40.3159 70.1606 41.3462 69.2517L44.1018 66.8358L46.856 69.2517C47.8876 70.1606 49.29 70.6703 50.7516 70.6669H55.1214V73.0817C55.1214 74.4162 56.3547 75.4976 57.8756 75.4976C59.3978 75.4976 60.6312 74.4162 60.6312 73.0817V63.4205C60.6312 62.087 59.3978 61.0057 57.8756 61.0057C56.3547 61.0057 55.1214 62.087 55.1214 63.4205V65.8363H50.7516L47.9973 63.4205C45.8446 61.5364 42.3577 61.5364 40.2062 63.4205L37.4507 65.8363H33.0822V5.45196C33.0784 2.78511 30.6129 0.624655 27.5711 0.621338H5.53196C2.49016 0.624655 0.0259467 2.78511 0.0221634 5.45196V140.711C0.0259467 143.378 2.49016 145.54 5.53196 145.542H27.5711ZM5.53196 5.45196H27.5711L27.5737 68.2433L27.5711 68.2511L27.5737 68.2599L27.5762 140.711H16.5515V104.481C16.5515 103.148 15.3182 102.067 13.7973 102.067C12.2751 102.067 11.0418 103.148 11.0418 104.481V140.711H5.53196V5.45196Z" fill="black"/>
<path d="M161.873 85.4235C149.023 77.382 138.302 67.0066 130.439 55.0035C129.359 53.167 127.377 51.8668 125.063 51.4754C123.762 51.2963 122.429 51.4477 121.223 51.9121L106.908 38.056C103.85 35.3228 101.137 32.3077 98.8208 29.0626C97.3504 27.1211 96.9645 24.6997 97.7703 22.4795C99.5926 20.1311 102.372 18.4848 105.538 17.8778C108.545 17.2022 111.636 16.8495 114.742 16.8285C115.541 16.8064 116.344 16.8429 117.151 16.8738C118.972 17.0109 120.805 16.9424 122.605 16.6682C124.464 16.4172 126.111 15.4807 127.129 14.0953C127.906 12.962 128.11 11.5976 127.693 10.3272C126.613 7.98325 124.497 6.12243 121.825 5.17156C117.88 3.33506 113.646 2.02154 109.262 1.27412C100.913 -0.32245 92.1836 0.950161 84.8729 4.82991C83.3407 5.67685 81.8955 6.63877 80.5536 7.70462L70.2806 15.8611C67.5541 17.6754 65.7469 20.3544 65.2463 23.3242C65.1883 23.9644 65.1744 24.5935 65.1605 25.2116C65.2652 26.4212 65.0382 27.6363 64.4997 28.7541C63.7947 29.8675 62.3608 30.4657 60.9307 30.2412C59.1438 29.1997 56.7792 29.3523 55.1839 30.6116L45.6675 37.9764C44.7318 38.7172 44.1706 39.7543 44.1075 40.8578C44.0457 41.9612 44.4859 43.0414 45.3321 43.8607L61.3999 59.4184C62.2436 60.2399 63.4265 60.7297 64.6851 60.7817C64.7658 60.7861 64.8465 60.7883 64.9272 60.7883C66.0963 60.7894 67.225 60.4102 68.0926 59.7236L77.6026 52.361C79.2131 51.0906 79.6267 49.0208 78.6052 47.3469C78.5737 46.49 78.6885 45.4319 79.4363 45.1433C81.3204 44.4301 86.2879 46.1317 89.418 49.1601L105.311 64.5487C104.666 65.5537 104.361 66.6992 104.432 67.8513C104.641 69.8945 105.906 71.7432 107.864 72.8665C120.714 80.908 131.436 91.2835 139.299 103.286C140.378 105.124 142.361 106.424 144.676 106.816C145.052 106.871 145.431 106.899 145.811 106.899C147.704 106.872 149.516 106.222 150.887 105.079L162.72 95.6873C164.467 94.3859 165.423 92.4455 165.305 90.4376C165.095 88.3944 163.831 86.5479 161.873 85.4235ZM64.9814 55.6868L49.9351 41.1165L58.2875 34.6517L67.7395 43.8032L73.335 49.2209L64.9814 55.6868ZM77.2218 40.7207C76.0086 41.1839 74.9858 41.9601 74.2872 42.9452L65.4077 34.3465C67.1127 33.6467 68.5062 32.4725 69.3714 31.0075C70.3374 29.2273 70.7838 27.2648 70.669 25.2967C70.6804 24.7738 70.6892 24.2441 70.7397 23.7024C71.1672 21.9731 72.3236 20.4506 73.9782 19.4379L84.255 11.2814C85.361 10.4046 86.5515 9.61188 87.8139 8.91421C93.9353 5.69785 101.231 4.65854 108.198 6.01186C112.05 6.66862 115.77 7.82293 119.236 9.43387C121.666 10.5694 122.352 11.4451 122.407 11.6209C122.134 11.7867 121.821 11.8962 121.492 11.9393C120.137 12.1195 118.763 12.156 117.398 12.0487C116.452 12.0123 115.513 11.9769 114.578 12.0012C111.018 12.03 107.475 12.4435 104.029 13.2307C99.3202 14.1683 95.2582 16.7622 92.7965 20.4042C91.1192 24.044 91.5833 28.1737 94.0387 31.4564C96.547 35.0166 99.498 38.3214 102.836 41.3111L116.808 54.8333L109.064 60.9818L93.504 45.9161C89.336 41.8838 82.1086 38.8444 77.2205 40.7207H77.2218ZM159.021 92.1072L147.191 101.498H147.189C146.773 101.881 146.186 102.084 145.583 102.051C144.917 101.889 144.371 101.471 144.097 100.914C135.829 88.286 124.551 77.371 111.032 68.9149C110.446 68.6219 110.041 68.1144 109.93 67.5317C109.951 67.0021 110.24 66.5079 110.718 66.1839L122.544 56.7936L122.547 56.7914L122.549 56.7903C122.921 56.4608 123.414 56.2607 123.94 56.2242C124.012 56.2242 124.083 56.2297 124.155 56.2397C124.82 56.4022 125.366 56.819 125.638 57.3752C126.124 58.1138 126.65 58.8225 127.154 59.5478L122.193 63.3081C121.448 63.8731 121.103 64.7433 121.29 65.5902C121.475 66.4382 122.163 67.1348 123.092 67.4179C124.022 67.6998 125.053 67.5273 125.797 66.9623L130.158 63.6564C131.426 65.2994 132.745 66.9059 134.114 68.4738L130.455 71.2578C129.306 72.1313 129.182 73.6571 130.18 74.6643C131.176 75.6727 132.916 75.781 134.065 74.9065L137.566 72.244C143.773 78.7022 150.874 84.4582 158.705 89.3762C159.291 89.667 159.697 90.1756 159.807 90.7583C159.787 91.2879 159.499 91.7821 159.021 92.1072Z" fill="black"/>
<path d="M50.0839 22.7732C51.1988 22.7732 52.2026 22.1849 52.6289 21.2827C53.0551 20.3805 52.8193 19.3412 52.0323 18.6502L48.1368 15.2348C47.0598 14.2906 45.3157 14.2906 44.2399 15.2348C43.1642 16.1779 43.1642 17.707 44.2399 18.6502L48.1355 22.0655C48.6513 22.52 49.3525 22.7743 50.0839 22.7732Z" fill="black"/>
<path d="M37.923 27.1903C37.923 28.5248 39.1564 29.6061 40.6786 29.6061H46.1884C47.7093 29.6061 48.9439 28.5248 48.9439 27.1903C48.9439 25.8568 47.7093 24.7755 46.1884 24.7755H40.6786C39.1564 24.7755 37.923 25.8568 37.923 27.1903Z" fill="black"/>
<path d="M57.8763 19.3579C59.3985 19.3579 60.6319 18.2766 60.6319 16.9431V12.1125C60.6319 10.778 59.3985 9.69666 57.8763 9.69666C56.3554 9.69666 55.1221 10.778 55.1221 12.1125V16.9431C55.1221 18.2766 56.3554 19.3579 57.8763 19.3579Z" fill="black"/>
<path d="M69.1658 94.6697C70.5921 94.2042 71.3185 92.8144 70.7889 91.5639C70.2592 90.3134 68.674 89.6754 67.2477 90.1409L56.9179 93.5043C55.9948 93.8039 55.3251 94.5138 55.1599 95.364C54.996 96.2154 55.3617 97.0778 56.1196 97.6284C56.8775 98.179 57.9129 98.3327 58.836 98.0331L61.4024 97.1972L63.4492 102.033C57.0806 103.523 52.3665 105.829 52.3665 109.312V135.881C52.3665 143.508 74.8786 145.542 88.1808 145.542C101.483 145.542 123.995 143.508 123.995 135.881V109.312C123.995 106.431 120.777 104.349 116.061 102.873L117.54 100.296L120.004 101.384C120.884 101.771 121.932 101.718 122.754 101.244C123.578 100.771 124.049 99.9481 123.993 99.0857C123.936 98.2243 123.358 97.4548 122.479 97.0678L112.634 92.7259C111.755 92.3378 110.706 92.392 109.883 92.8652C109.06 93.3395 108.588 94.1622 108.645 95.0235C108.703 95.8848 109.279 96.6543 110.158 97.0424L112.617 98.127L110.655 101.546C106.357 100.754 102 100.227 97.6177 99.9691L98.0768 97.5543L100.784 97.949C101.763 98.1071 102.763 97.7898 103.4 97.1187C104.037 96.4476 104.212 95.5276 103.856 94.7128C103.502 93.8968 102.672 93.313 101.687 93.1848L96.2784 92.3953L96.2658 92.3909H96.2507L90.8166 91.5981C89.3272 91.3991 87.9324 92.287 87.6852 93.5894C87.438 94.8919 88.4305 96.1269 89.9123 96.3624L92.6414 96.7605L92.0802 99.7126C90.7258 99.675 89.4054 99.6506 88.1808 99.6506C81.7189 99.6429 75.2671 100.094 68.8896 101.002L66.5679 95.5155L69.1658 94.6697ZM65.3825 106.542L67.9337 112.579C62.241 111.572 58.7856 110.277 57.9646 109.312C60.1249 107.846 62.6786 106.892 65.3825 106.542ZM88.1808 140.711C81.7176 140.76 75.2633 140.293 68.8959 139.318V123.804C68.8959 122.47 67.6626 121.389 66.1417 121.389C64.6195 121.389 63.3861 122.47 63.3861 123.804V138.175C61.323 137.853 59.4098 137.016 57.8763 135.764V114.878C62.178 116.459 66.7129 117.499 71.3463 117.967C71.6149 118.042 71.8936 118.081 72.1748 118.081C72.1975 118.081 72.2202 118.07 72.2442 118.07C77.5295 118.668 82.8526 118.97 88.1808 118.973C89.2793 118.973 90.4571 118.953 91.664 118.923L91.6829 118.926L91.6968 118.923C96.513 118.814 101.317 118.447 106.082 117.823C106.236 117.812 106.39 117.79 106.54 117.757C110.651 117.27 114.669 116.302 118.485 114.878V135.75C117.382 137.553 106.451 140.711 88.1808 140.711ZM118.398 109.312C116.165 110.812 113.529 111.783 110.745 112.13L113.582 107.188C115.363 107.535 117.019 108.265 118.398 109.312ZM108.104 105.988L103.937 113.246C101.27 113.573 98.276 113.834 94.9517 113.988L96.7123 104.731C100.536 104.941 104.341 105.36 108.104 105.988ZM91.1684 104.513L89.3385 114.13C88.9489 114.134 88.5756 114.142 88.1808 114.142C83.5009 114.156 78.8234 113.924 74.1749 113.447L70.8519 105.581C76.5874 104.818 82.381 104.45 88.1808 104.481C89.2023 104.481 90.1923 104.493 91.1684 104.513Z" fill="black"/>
<path d="M19.3078 51.3434C20.8287 51.3434 22.062 50.262 22.062 48.9286V19.9449C22.062 18.6104 20.8287 17.5291 19.3078 17.5291C17.7856 17.5291 16.5523 18.6104 16.5523 19.9449V48.9286C16.5523 50.262 17.7856 51.3434 19.3078 51.3434Z" fill="black"/>
<path d="M19.3078 65.8363C20.8287 65.8363 22.062 64.7549 22.062 63.4204V58.5898C22.062 57.2564 20.8287 56.175 19.3078 56.175C17.7856 56.175 16.5523 57.2564 16.5523 58.5898V63.4204C16.5523 64.7549 17.7856 65.8363 19.3078 65.8363Z" fill="black"/>
</g>
<defs>
<clipPath id="clip0">
<rect width="165.319" height="144.941" fill="white" transform="translate(0 0.60144)"/>
</clipPath>
</defs>
</svg>
